<svg xmlns="http://www.w3.org/2000/svg" xmlns:xlink="http://www.w3.org/1999/xlink" width="500" zoomAndPan="magnify" viewBox="0 0 375 374.999991" height="500" preserveAspectRatio="xMidYMid meet" version="1.2"><defs><clipPath id="d684799f33"><path d="M 20.921875 21.335938 L 353 21.335938 L 353 353.585938 L 20.921875 353.585938 Z M 20.921875 21.335938 "/></clipPath></defs><g id="f3fb59e162"><g clip-rule="nonzero" clip-path="url(#d684799f33)"><path style=" stroke:none;fill-rule:nonzero;fill:#945d4a;fill-opacity:1;" d="M 352.320312 166.84375 C 350.71875 161.917969 346.171875 158.613281 340.996094 158.613281 C 340.988281 158.613281 340.980469 158.613281 340.96875 158.613281 L 315.804688 158.660156 C 315.804688 158.660156 315.804688 158.660156 315.800781 158.660156 C 315.230469 158.660156 314.835938 158.375 314.660156 157.832031 L 306.929688 133.882812 C 305.335938 128.945312 300.78125 125.632812 295.59375 125.632812 C 293.589844 125.632812 291.683594 126.132812 290.003906 127.023438 C 281.09375 113.375 269.464844 101.519531 255.972656 92.34375 L 255.972656 81.859375 C 255.972656 79.640625 254.609375 77.65625 252.542969 76.859375 L 244.542969 73.78125 C 243.3125 69.523438 241.613281 65.425781 239.46875 61.542969 L 242.953125 53.703125 C 243.851562 51.679688 243.410156 49.3125 241.84375 47.746094 L 229.652344 35.554688 C 228.085938 33.988281 225.71875 33.546875 223.691406 34.445312 L 215.851562 37.929688 C 211.96875 35.785156 207.871094 34.085938 203.617188 32.855469 L 200.535156 24.855469 C 199.742188 22.789062 197.753906 21.421875 195.539062 21.421875 L 178.296875 21.421875 C 176.082031 21.421875 174.097656 22.789062 173.300781 24.855469 L 170.21875 32.855469 C 165.964844 34.085938 161.867188 35.785156 157.984375 37.929688 L 150.144531 34.445312 C 148.121094 33.546875 145.75 33.988281 144.183594 35.554688 L 131.992188 47.746094 C 130.425781 49.3125 129.984375 51.679688 130.886719 53.703125 L 134.367188 61.546875 C 132.222656 65.429688 130.523438 69.527344 129.292969 73.78125 L 121.292969 76.859375 C 119.226562 77.65625 117.863281 79.644531 117.863281 81.859375 L 117.863281 92.335938 C 107.738281 99.210938 98.757812 107.503906 91.085938 117.035156 C 84.953125 114.359375 78.1875 112.863281 71.078125 112.863281 C 43.421875 112.863281 20.921875 135.363281 20.921875 163.019531 C 20.921875 176.039062 25.019531 183.039062 28.980469 189.8125 C 33.355469 197.289062 37.878906 205.027344 38.972656 223.28125 L 38.972656 230.378906 C 38.972656 235.429688 41.960938 239.785156 46.253906 241.804688 L 46.253906 244.9375 C 46.253906 250.0625 49.324219 254.476562 53.71875 256.457031 L 53.71875 259.5 C 53.71875 266.46875 59.386719 272.136719 66.355469 272.136719 L 75.804688 272.136719 C 80.550781 272.136719 84.6875 269.503906 86.847656 265.625 C 99.234375 282.949219 115.910156 296.796875 135.28125 305.761719 C 124.726562 316.785156 117.660156 331.246094 115.921875 347.492188 C 115.757812 349.003906 116.246094 350.511719 117.261719 351.640625 C 118.277344 352.773438 119.726562 353.417969 121.246094 353.417969 L 252.59375 353.417969 C 254.113281 353.417969 255.558594 352.773438 256.574219 351.640625 C 257.589844 350.511719 258.078125 349.003906 257.917969 347.492188 C 256.175781 331.242188 249.105469 316.777344 238.546875 305.753906 C 254.746094 298.246094 269.25 287.214844 280.851562 273.5 C 292.636719 259.570312 301.175781 243.152344 305.816406 225.625 L 316.632812 233.511719 C 320.824219 236.570312 326.457031 236.574219 330.652344 233.527344 C 334.847656 230.476562 336.585938 225.117188 334.972656 220.1875 L 327.148438 196.269531 C 326.972656 195.726562 327.125 195.261719 327.585938 194.925781 L 347.972656 180.171875 C 352.175781 177.132812 353.925781 171.777344 352.320312 166.84375 Z M 128.570312 85.535156 L 135.695312 82.792969 C 137.34375 82.160156 138.574219 80.753906 138.980469 79.035156 C 140.1875 73.960938 142.191406 69.132812 144.933594 64.683594 C 145.859375 63.179688 145.984375 61.316406 145.265625 59.703125 L 142.164062 52.71875 L 149.15625 45.726562 L 156.140625 48.828125 C 157.753906 49.542969 159.621094 49.417969 161.121094 48.496094 C 165.574219 45.75 170.402344 43.75 175.472656 42.542969 C 177.191406 42.136719 178.597656 40.90625 179.230469 39.257812 L 181.972656 32.132812 L 191.863281 32.132812 L 194.605469 39.257812 C 195.238281 40.90625 196.644531 42.136719 198.363281 42.542969 C 203.433594 43.75 208.261719 45.75 212.714844 48.496094 C 214.21875 49.417969 216.082031 49.542969 217.695312 48.828125 L 224.679688 45.726562 L 231.671875 52.71875 L 228.570312 59.699219 C 227.851562 61.3125 227.976562 63.175781 228.90625 64.679688 C 231.644531 69.128906 233.648438 73.960938 234.855469 79.035156 C 235.265625 80.753906 236.492188 82.160156 238.140625 82.792969 L 245.265625 85.535156 L 245.265625 95.421875 L 238.140625 98.164062 C 236.492188 98.800781 235.261719 100.207031 234.855469 101.921875 C 233.644531 106.992188 231.644531 111.824219 228.902344 116.273438 C 227.976562 117.777344 227.851562 119.640625 228.570312 121.253906 L 231.671875 128.238281 L 224.679688 135.230469 L 217.699219 132.128906 C 216.085938 131.414062 214.222656 131.539062 212.714844 132.464844 C 208.265625 135.207031 203.4375 137.207031 198.363281 138.417969 C 196.644531 138.824219 195.238281 140.054688 194.605469 141.703125 L 191.863281 148.824219 L 181.976562 148.824219 L 179.230469 141.699219 C 178.597656 140.050781 177.191406 138.824219 175.476562 138.414062 C 170.402344 137.207031 165.574219 135.203125 161.125 132.464844 C 159.621094 131.535156 157.753906 131.414062 156.144531 132.128906 L 149.15625 135.230469 L 142.164062 128.238281 L 145.265625 121.257812 C 145.984375 119.644531 145.859375 117.78125 144.933594 116.277344 C 142.191406 111.828125 140.1875 106.996094 138.980469 101.921875 C 138.570312 100.207031 137.34375 98.800781 135.695312 98.164062 L 128.570312 95.421875 Z M 31.628906 163.019531 C 31.628906 141.269531 49.328125 123.570312 71.078125 123.570312 C 92.832031 123.570312 110.53125 141.269531 110.53125 163.019531 C 110.53125 173.136719 107.621094 178.109375 103.9375 184.402344 C 99.765625 191.53125 94.660156 200.253906 92.886719 217.742188 L 84.171875 217.742188 L 84.171875 179.117188 L 89.230469 179.117188 C 97.921875 179.117188 104.996094 172.042969 104.996094 163.351562 C 104.996094 154.65625 97.921875 147.585938 89.230469 147.585938 C 80.535156 147.585938 73.460938 154.65625 73.460938 163.351562 L 73.460938 168.40625 L 68.699219 168.40625 L 68.699219 163.351562 C 68.699219 154.65625 61.625 147.585938 52.929688 147.585938 C 44.238281 147.585938 37.164062 154.65625 37.164062 163.351562 C 37.164062 172.042969 44.238281 179.117188 52.929688 179.117188 L 57.988281 179.117188 L 57.988281 217.742188 L 49.269531 217.742188 C 47.5 200.253906 42.394531 191.53125 38.222656 184.402344 C 34.539062 178.109375 31.628906 173.136719 31.628906 163.019531 Z M 58.890625 246.863281 C 57.84375 246.863281 56.960938 245.984375 56.960938 244.9375 L 56.960938 243.011719 L 85.195312 243.011719 L 85.195312 244.9375 C 85.195312 245.984375 84.316406 246.863281 83.273438 246.863281 Z M 92.476562 230.378906 C 92.476562 231.421875 91.59375 232.304688 90.550781 232.304688 L 51.605469 232.304688 C 50.5625 232.304688 49.683594 231.421875 49.683594 230.378906 L 49.683594 228.449219 L 92.476562 228.449219 Z M 57.988281 168.40625 L 52.929688 168.40625 C 50.140625 168.40625 47.875 166.140625 47.875 163.351562 C 47.875 160.5625 50.140625 158.292969 52.929688 158.292969 C 55.71875 158.292969 57.988281 160.5625 57.988281 163.351562 Z M 73.460938 217.742188 L 68.695312 217.742188 L 68.695312 179.117188 L 73.460938 179.117188 Z M 84.171875 168.40625 L 84.171875 163.351562 C 84.171875 160.5625 86.441406 158.292969 89.226562 158.292969 C 92.015625 158.292969 94.285156 160.5625 94.285156 163.351562 C 94.285156 166.140625 92.015625 168.40625 89.226562 168.40625 Z M 75.804688 261.425781 L 66.355469 261.425781 C 65.3125 261.425781 64.429688 260.546875 64.429688 259.5 L 64.429688 257.574219 L 77.730469 257.574219 L 77.730469 259.5 C 77.730469 260.546875 76.847656 261.425781 75.804688 261.425781 Z M 127.496094 342.710938 C 133.269531 314.828125 157.84375 294.472656 186.917969 294.472656 C 215.996094 294.472656 240.566406 314.828125 246.339844 342.710938 Z M 158.875 255.71875 C 158.875 240.257812 171.457031 227.675781 186.917969 227.675781 C 202.382812 227.675781 214.960938 240.257812 214.960938 255.71875 C 214.960938 271.183594 202.382812 283.761719 186.917969 283.761719 C 171.457031 283.761719 158.875 271.183594 158.875 255.71875 Z M 229.71875 297.9375 C 223.589844 293.359375 216.707031 289.757812 209.300781 287.328125 C 219.195312 280.296875 225.671875 268.753906 225.671875 255.71875 C 225.671875 234.351562 208.285156 216.96875 186.917969 216.96875 C 165.550781 216.96875 148.167969 234.351562 148.167969 255.71875 C 148.167969 268.753906 154.644531 280.296875 164.539062 287.324219 C 157.128906 289.757812 150.242188 293.359375 144.113281 297.941406 C 122.597656 289.0625 104.398438 273.714844 91.976562 254.070312 C 94.390625 251.769531 95.90625 248.53125 95.90625 244.9375 L 95.90625 241.804688 C 100.199219 239.785156 103.1875 235.429688 103.1875 230.375 L 103.1875 223.269531 C 104.28125 205.023438 108.804688 197.289062 113.179688 189.8125 C 117.140625 183.039062 121.238281 176.039062 121.238281 163.023438 C 121.238281 146.351562 113.054688 131.5625 100.503906 122.4375 C 106.363281 115.371094 113.027344 109.082031 120.414062 103.652344 C 120.691406 103.824219 120.980469 103.976562 121.292969 104.097656 L 129.292969 107.179688 C 130.523438 111.433594 132.222656 115.53125 134.367188 119.417969 L 130.882812 127.253906 C 129.984375 129.277344 130.425781 131.648438 131.992188 133.214844 L 144.183594 145.40625 C 145.75 146.972656 148.117188 147.410156 150.144531 146.511719 L 157.984375 143.03125 C 161.871094 145.175781 165.964844 146.871094 170.21875 148.101562 L 173.300781 156.105469 C 174.09375 158.171875 176.082031 159.535156 178.296875 159.535156 L 195.539062 159.535156 C 197.753906 159.535156 199.742188 158.171875 200.535156 156.105469 L 203.617188 148.105469 C 207.871094 146.875 211.96875 145.175781 215.855469 143.03125 L 223.691406 146.511719 C 225.714844 147.414062 228.085938 146.972656 229.652344 145.40625 L 241.84375 133.214844 C 243.410156 131.648438 243.851562 129.277344 242.953125 127.253906 L 239.46875 119.414062 C 241.613281 115.527344 243.308594 111.429688 244.542969 107.179688 L 252.542969 104.097656 C 252.855469 103.976562 253.144531 103.824219 253.421875 103.652344 C 265.460938 112.527344 275.703125 123.800781 283.371094 136.636719 L 276.53125 157.832031 C 276.355469 158.375 275.960938 158.664062 275.390625 158.664062 C 275.386719 158.664062 275.386719 158.664062 275.386719 158.664062 L 250.222656 158.617188 C 250.210938 158.617188 250.207031 158.617188 250.195312 158.617188 C 245.019531 158.617188 240.472656 161.921875 238.871094 166.84375 C 237.265625 171.777344 239.015625 177.132812 243.214844 180.175781 L 263.601562 194.925781 C 264.066406 195.265625 264.21875 195.730469 264.039062 196.273438 L 256.21875 220.191406 C 254.605469 225.121094 256.339844 230.480469 260.539062 233.53125 C 262.632812 235.050781 265.085938 235.8125 267.539062 235.8125 C 269.996094 235.8125 272.457031 235.046875 274.558594 233.515625 L 294.886719 218.683594 C 295.351562 218.347656 295.839844 218.347656 296.300781 218.683594 L 296.464844 218.804688 C 288.507812 254.175781 263.308594 284.058594 229.71875 297.9375 Z M 341.699219 171.496094 L 321.308594 186.25 C 317.101562 189.296875 315.355469 194.664062 316.972656 199.601562 L 324.796875 223.519531 C 324.972656 224.0625 324.824219 224.527344 324.359375 224.863281 C 323.894531 225.199219 323.40625 225.199219 322.945312 224.863281 L 302.617188 210.03125 C 298.417969 206.96875 292.777344 206.96875 288.578125 210.03125 L 268.25 224.863281 C 267.785156 225.199219 267.296875 225.199219 266.835938 224.863281 C 266.371094 224.527344 266.21875 224.0625 266.398438 223.519531 L 274.222656 199.601562 C 275.835938 194.664062 274.09375 189.296875 269.882812 186.25 L 249.496094 171.496094 C 249.035156 171.160156 248.882812 170.699219 249.058594 170.152344 C 249.234375 169.609375 249.628906 169.324219 250.199219 169.324219 C 250.199219 169.324219 250.203125 169.324219 250.203125 169.324219 L 275.367188 169.371094 C 275.375 169.371094 275.382812 169.371094 275.390625 169.371094 C 280.578125 169.371094 285.132812 166.058594 286.726562 161.121094 L 294.457031 137.171875 C 294.632812 136.628906 295.027344 136.339844 295.597656 136.339844 C 296.171875 136.339844 296.566406 136.628906 296.742188 137.171875 L 304.472656 161.121094 C 306.066406 166.058594 310.621094 169.371094 315.804688 169.371094 C 315.8125 169.371094 315.820312 169.371094 315.828125 169.371094 L 340.996094 169.324219 C 340.996094 169.324219 340.996094 169.324219 341 169.324219 C 341.570312 169.324219 341.960938 169.609375 342.140625 170.152344 C 342.3125 170.695312 342.160156 171.160156 341.699219 171.496094 Z M 186.917969 130.503906 C 208.988281 130.503906 226.941406 112.546875 226.941406 90.480469 C 226.941406 68.410156 208.988281 50.457031 186.917969 50.457031 C 164.847656 50.457031 146.894531 68.410156 146.894531 90.480469 C 146.894531 112.546875 164.847656 130.503906 186.917969 130.503906 Z M 186.917969 61.164062 C 203.082031 61.164062 216.234375 74.316406 216.234375 90.480469 C 216.234375 106.644531 203.082031 119.792969 186.917969 119.792969 C 170.753906 119.792969 157.605469 106.644531 157.605469 90.480469 C 157.605469 74.316406 170.753906 61.164062 186.917969 61.164062 Z M 166.832031 95.234375 C 164.742188 93.144531 164.742188 89.753906 166.832031 87.664062 C 168.925781 85.570312 172.316406 85.574219 174.40625 87.664062 L 180.304688 93.5625 L 199.617188 76.035156 C 201.808594 74.046875 205.195312 74.210938 207.183594 76.402344 C 209.171875 78.59375 209.007812 81.980469 206.816406 83.964844 L 183.726562 104.921875 C 182.703125 105.851562 181.414062 106.3125 180.128906 106.3125 C 178.753906 106.3125 177.382812 105.785156 176.339844 104.742188 Z M 166.832031 95.234375 "/></g></g></svg>