<svg xmlns="http://www.w3.org/2000/svg" xmlns:xlink="http://www.w3.org/1999/xlink" width="500" zoomAndPan="magnify" viewBox="0 0 375 374.999991" height="500" preserveAspectRatio="xMidYMid meet" version="1.2"><defs><clipPath id="5f58b4b14a"><path d="M 24.253906 28 L 348 28 L 348 347.5625 L 24.253906 347.5625 Z M 24.253906 28 "/></clipPath></defs><g id="ab42a86cca"><g clip-rule="nonzero" clip-path="url(#5f58b4b14a)"><path style=" stroke:none;fill-rule:evenodd;fill:#945d4a;fill-opacity:1;" d="M 57.429688 271.910156 L 47.046875 261.527344 C 45.53125 260.011719 45.105469 257.71875 45.976562 255.761719 C 45.976562 255.761719 52.644531 240.765625 52.644531 240.765625 C 48.410156 233.453125 45.164062 225.605469 42.957031 217.4375 L 27.648438 211.546875 C 25.648438 210.777344 24.332031 208.855469 24.332031 206.710938 L 24.332031 177.636719 C 24.332031 175.496094 25.648438 173.574219 27.648438 172.804688 C 27.648438 172.804688 42.953125 166.914062 42.953125 166.914062 C 45.160156 158.726562 48.410156 150.890625 52.644531 143.558594 L 45.976562 128.558594 C 45.105469 126.601562 45.53125 124.308594 47.046875 122.792969 L 67.601562 102.238281 C 69.117188 100.722656 71.40625 100.296875 73.367188 101.167969 C 73.367188 101.167969 88.367188 107.835938 88.363281 107.835938 C 95.695312 103.601562 103.53125 100.355469 111.695312 98.167969 L 117.613281 82.835938 C 118.382812 80.839844 120.304688 79.523438 122.445312 79.523438 L 151.519531 79.523438 C 153.664062 79.523438 155.585938 80.84375 156.355469 82.84375 L 162.242188 98.171875 C 170.40625 100.359375 178.242188 103.601562 185.570312 107.835938 L 200.570312 101.167969 C 202.527344 100.296875 204.820312 100.722656 206.335938 102.238281 L 212.421875 108.328125 C 212.421875 101.90625 212.421875 95.425781 212.421875 95.425781 L 202.308594 95.425781 C 193.925781 95.425781 189.316406 85.804688 194.445312 79.292969 C 194.445312 79.292969 231.378906 32.425781 231.378906 32.425781 C 235.382812 27.300781 243.035156 27.300781 247.039062 32.425781 L 283.972656 79.292969 C 289.101562 85.804688 284.492188 95.425781 276.109375 95.425781 L 265.996094 95.425781 L 265.996094 133.675781 C 276.925781 119.804688 292.703125 99.785156 292.703125 99.785156 C 296.707031 94.660156 304.359375 94.660156 308.363281 99.785156 L 345.296875 146.652344 C 350.425781 153.164062 345.816406 162.78125 337.433594 162.78125 L 327.316406 162.78125 L 327.316406 259.519531 C 327.316406 262.390625 324.988281 264.71875 322.121094 264.71875 L 278.945312 264.71875 C 276.074219 264.71875 273.746094 262.390625 273.746094 259.519531 C 273.746094 259.519531 273.746094 183.558594 273.746094 162.78125 L 265.996094 162.78125 L 265.996094 192.160156 C 265.996094 195.03125 263.667969 197.359375 260.796875 197.359375 L 249.605469 197.359375 L 249.605469 206.710938 C 249.605469 208.855469 248.285156 210.777344 246.289062 211.546875 C 246.289062 211.546875 230.988281 217.433594 230.988281 217.433594 C 228.796875 225.597656 225.53125 233.429688 221.3125 240.761719 L 227.960938 255.769531 C 228.828125 257.726562 228.402344 260.011719 226.890625 261.527344 L 220.40625 268.011719 L 236.824219 306.339844 C 237.582031 308.113281 237.296875 310.15625 236.078125 311.652344 C 234.859375 313.144531 232.914062 313.839844 231.027344 313.453125 C 231.027344 313.453125 199.945312 307.09375 199.945312 307.09375 L 183.207031 334.039062 C 182.1875 335.683594 180.335938 336.621094 178.40625 336.46875 C 176.476562 336.320312 174.792969 335.105469 174.039062 333.324219 L 158.367188 296.242188 L 156.351562 301.480469 C 155.582031 303.480469 153.664062 304.796875 151.519531 304.796875 L 122.445312 304.796875 C 120.925781 304.796875 119.519531 304.132812 118.550781 303.035156 L 99.121094 344.371094 C 98.300781 346.113281 96.582031 347.257812 94.660156 347.339844 C 92.738281 347.425781 90.925781 346.433594 89.957031 344.769531 C 89.957031 344.769531 74.019531 317.34375 74.019531 317.34375 L 42.773438 322.816406 C 40.875 323.148438 38.945312 322.398438 37.773438 320.871094 C 36.597656 319.339844 36.371094 317.285156 37.183594 315.535156 Z M 222.820312 118.722656 L 226.890625 122.792969 C 228.402344 124.304688 228.828125 126.59375 227.960938 128.550781 C 227.960938 128.550781 221.316406 143.554688 221.316406 143.554688 C 225.554688 150.886719 228.800781 158.726562 230.988281 166.917969 L 246.289062 172.804688 C 248.285156 173.574219 249.605469 175.496094 249.605469 177.636719 L 249.605469 186.960938 C 252.527344 186.960938 255.597656 186.960938 255.597656 186.960938 L 255.597656 158.757812 C 253.152344 155.433594 252.773438 150.664062 255.597656 146.875 L 255.597656 90.226562 C 255.597656 87.355469 257.925781 85.027344 260.796875 85.027344 L 275.253906 85.027344 L 239.207031 39.285156 L 203.164062 85.027344 L 217.621094 85.027344 C 220.492188 85.027344 222.820312 87.355469 222.820312 90.226562 Z M 212.519531 275.898438 L 206.335938 282.082031 C 204.820312 283.59375 202.53125 284.019531 200.574219 283.15625 C 200.574219 283.15625 185.578125 276.511719 185.578125 276.511719 C 179.097656 280.261719 172.195312 283.238281 165.027344 285.390625 L 179.6875 320.082031 L 193.050781 298.566406 C 194.195312 296.722656 196.363281 295.789062 198.488281 296.226562 L 223.410156 301.324219 Z M 113.214844 290.050781 C 112.359375 287.832031 111.722656 286.179688 111.722656 286.179688 C 103.535156 283.988281 95.699219 280.726562 88.367188 276.507812 L 73.359375 283.15625 C 71.402344 284.019531 69.113281 283.59375 67.601562 282.082031 L 65.226562 279.707031 L 50.75 310.90625 L 75.789062 306.519531 C 77.925781 306.144531 80.070312 307.140625 81.160156 309.015625 C 81.160156 309.015625 93.949219 331.027344 93.949219 331.027344 Z M 153.539062 104.390625 L 147.960938 89.878906 C 147.960938 89.878906 125.996094 89.878906 125.996094 89.878906 L 120.394531 104.394531 C 119.78125 105.988281 118.421875 107.175781 116.761719 107.570312 C 107.8125 109.695312 99.273438 113.234375 91.429688 118.066406 C 89.976562 118.964844 88.171875 119.085938 86.609375 118.390625 L 72.410156 112.074219 L 56.882812 127.601562 L 63.199219 141.800781 C 63.890625 143.363281 63.769531 145.167969 62.875 146.621094 C 58.039062 154.472656 54.5 163.011719 52.347656 171.992188 C 51.949219 173.652344 50.761719 175.003906 49.171875 175.617188 L 34.6875 181.191406 C 34.6875 181.191406 34.6875 203.15625 34.6875 203.15625 L 49.171875 208.730469 C 50.757812 209.34375 51.945312 210.695312 52.34375 212.351562 C 54.5 221.304688 58.035156 229.871094 62.871094 237.691406 C 63.769531 239.148438 63.894531 240.953125 63.199219 242.519531 C 63.199219 242.519531 56.882812 256.71875 56.882812 256.71875 L 72.414062 272.246094 L 86.617188 265.957031 C 88.171875 265.265625 89.96875 265.386719 91.417969 266.273438 C 99.265625 271.082031 107.804688 274.648438 116.785156 276.777344 C 118.449219 277.171875 119.8125 278.363281 120.425781 279.957031 L 126 294.441406 C 126 294.441406 147.964844 294.441406 147.964844 294.441406 L 153.539062 279.957031 C 154.152344 278.363281 155.511719 277.175781 157.175781 276.777344 C 166.121094 274.652344 174.683594 271.117188 182.5 266.285156 C 183.953125 265.386719 185.757812 265.261719 187.320312 265.957031 L 201.523438 272.246094 L 217.054688 256.714844 L 210.765625 242.511719 C 210.074219 240.957031 210.195312 239.160156 211.082031 237.707031 C 215.890625 229.859375 219.457031 221.320312 221.585938 212.367188 C 221.980469 210.703125 223.171875 209.34375 224.765625 208.730469 L 239.25 203.15625 C 239.25 203.15625 239.25 181.191406 239.25 181.191406 L 224.765625 175.617188 C 223.167969 175.003906 221.980469 173.640625 221.585938 171.980469 C 219.460938 163 215.921875 154.464844 211.089844 146.621094 C 210.195312 145.167969 210.074219 143.367188 210.765625 141.808594 C 210.765625 141.808594 217.054688 127.605469 217.054688 127.605469 L 201.527344 112.074219 L 187.324219 118.390625 C 185.765625 119.085938 183.960938 118.964844 182.503906 118.066406 C 174.660156 113.234375 166.125 109.695312 157.175781 107.570312 C 155.511719 107.175781 154.152344 105.984375 153.539062 104.390625 Z M 136.96875 126.449219 C 173.234375 126.449219 202.679688 155.890625 202.679688 192.160156 C 202.679688 228.429688 173.234375 257.871094 136.96875 257.871094 C 100.699219 257.871094 71.253906 228.429688 71.253906 192.160156 C 71.253906 155.890625 100.699219 126.449219 136.96875 126.449219 Z M 136.96875 136.804688 C 106.414062 136.804688 81.609375 161.609375 81.609375 192.160156 C 81.609375 222.710938 106.414062 247.515625 136.96875 247.515625 C 167.519531 247.515625 192.324219 222.710938 192.324219 192.160156 C 192.324219 161.609375 167.519531 136.804688 136.96875 136.804688 Z M 128.742188 190.328125 L 155.472656 163.316406 L 155.484375 163.308594 C 161.097656 157.664062 170.261719 157.636719 175.902344 163.253906 C 181.542969 168.863281 181.582031 177.992188 175.96875 183.664062 C 163.628906 196.113281 151.382812 208.640625 138.992188 221.03125 C 133.351562 226.671875 124.191406 226.671875 118.550781 221.03125 L 98.011719 200.472656 C 92.371094 194.835938 92.363281 185.710938 98 180.042969 L 98.011719 180.035156 C 103.652344 174.394531 112.808594 174.394531 118.449219 180.035156 Z M 125.101562 201.332031 L 111.125 187.355469 C 109.527344 185.761719 106.9375 185.757812 105.339844 187.351562 C 103.742188 188.960938 103.734375 191.550781 105.332031 193.148438 L 125.875 213.710938 C 127.472656 215.308594 130.070312 215.308594 131.667969 213.710938 C 144.050781 201.328125 156.28125 188.816406 168.609375 176.378906 C 170.199219 174.769531 170.199219 172.183594 168.601562 170.59375 C 167.003906 169.007812 164.414062 169.015625 162.828125 170.609375 L 132.441406 201.3125 C 131.472656 202.292969 130.152344 202.84375 128.777344 202.847656 C 127.398438 202.851562 126.074219 202.304688 125.101562 201.332031 Z M 264.488281 152.386719 L 278.945312 152.386719 C 281.816406 152.386719 284.144531 154.714844 284.144531 157.585938 C 284.144531 157.585938 284.144531 254.320312 284.144531 254.320312 L 316.921875 254.320312 L 316.921875 157.585938 C 316.921875 154.714844 319.25 152.386719 322.121094 152.386719 L 336.578125 152.386719 L 300.53125 106.644531 Z M 264.488281 152.386719 "/></g></g></svg>