<svg xmlns="http://www.w3.org/2000/svg" xmlns:xlink="http://www.w3.org/1999/xlink" width="500" zoomAndPan="magnify" viewBox="0 0 375 374.999991" height="500" preserveAspectRatio="xMidYMid meet" version="1.2"><defs><clipPath id="1905570b99"><path d="M 329 101 L 344.960938 101 L 344.960938 112 L 329 112 Z M 329 101 "/></clipPath><clipPath id="b17db0f0df"><path d="M 258 29.960938 L 269 29.960938 L 269 46 L 258 46 Z M 258 29.960938 "/></clipPath><clipPath id="17163ad026"><path d="M 29.960938 157 L 112 157 L 112 344.960938 L 29.960938 344.960938 Z M 29.960938 157 "/></clipPath></defs><g id="b17ca1fac3"><path style=" stroke:none;fill-rule:nonzero;fill:#945d4a;fill-opacity:1;" d="M 294.152344 182.378906 L 294.152344 172.542969 C 294.152344 165.28125 296.859375 158.570312 301.582031 154.125 C 313.003906 143.375 319.554688 128.144531 319.554688 112.332031 C 319.554688 95.921875 312.605469 80.296875 300.492188 69.472656 C 288.554688 58.808594 273.242188 53.929688 257.308594 55.71875 C 231.308594 58.65625 210.601562 80.066406 208.0625 106.632812 C 206.359375 124.433594 212.695312 141.636719 225.445312 153.832031 C 230.359375 158.535156 233.183594 165.34375 233.183594 172.523438 L 233.183594 182.378906 C 233.183594 185.183594 235.460938 187.460938 238.265625 187.460938 L 289.070312 187.460938 C 291.875 187.460938 294.152344 185.183594 294.152344 182.378906 Z M 283.992188 177.296875 L 243.347656 177.296875 L 243.347656 172.523438 C 243.347656 162.585938 239.378906 153.09375 232.464844 146.484375 C 221.976562 136.460938 216.765625 122.289062 218.171875 107.601562 C 220.261719 85.796875 237.195312 68.222656 258.445312 65.820312 C 271.449219 64.367188 283.972656 68.34375 293.722656 77.050781 C 303.679688 85.953125 309.394531 98.808594 309.394531 112.332031 C 309.394531 125.347656 304.007812 137.886719 294.613281 146.734375 C 287.863281 153.082031 283.992188 162.492188 283.992188 172.542969 Z M 283.992188 177.296875 "/><path style=" stroke:none;fill-rule:nonzero;fill:#945d4a;fill-opacity:1;" d="M 238.265625 192.539062 L 289.070312 192.539062 L 289.070312 202.703125 L 238.265625 202.703125 Z M 238.265625 192.539062 "/><path style=" stroke:none;fill-rule:nonzero;fill:#945d4a;fill-opacity:1;" d="M 288.359375 215.820312 L 288.808594 214.472656 C 289.328125 212.921875 289.0625 211.222656 288.105469 209.894531 C 287.15625 208.5625 285.621094 207.78125 283.992188 207.78125 L 243.347656 207.78125 C 241.714844 207.78125 240.179688 208.5625 239.226562 209.894531 C 238.269531 211.222656 238.011719 212.921875 238.523438 214.472656 L 238.972656 215.820312 C 242.4375 226.203125 252.125 233.183594 263.074219 233.183594 L 264.261719 233.183594 C 275.210938 233.183594 284.902344 226.203125 288.359375 215.820312 Z M 264.261719 223.023438 L 263.074219 223.023438 C 258.628906 223.023438 254.539062 221.109375 251.710938 217.941406 L 275.628906 217.941406 C 272.800781 221.109375 268.707031 223.023438 264.261719 223.023438 Z M 264.261719 223.023438 "/><path style=" stroke:none;fill-rule:nonzero;fill:#945d4a;fill-opacity:1;" d="M 182.378906 101.089844 L 197.621094 101.089844 L 197.621094 111.25 L 182.378906 111.25 Z M 182.378906 101.089844 "/><g clip-rule="nonzero" clip-path="url(#1905570b99)"><path style=" stroke:none;fill-rule:nonzero;fill:#945d4a;fill-opacity:1;" d="M 329.71875 101.089844 L 344.960938 101.089844 L 344.960938 111.25 L 329.71875 111.25 Z M 329.71875 101.089844 "/></g><path style=" stroke:none;fill-rule:nonzero;fill:#945d4a;fill-opacity:1;" d="M 202.59375 52.28125 L 209.777344 45.097656 L 220.554688 55.875 L 213.371094 63.058594 Z M 202.59375 52.28125 "/><path style=" stroke:none;fill-rule:nonzero;fill:#945d4a;fill-opacity:1;" d="M 306.777344 55.875 L 317.554688 45.097656 L 324.738281 52.28125 L 313.960938 63.058594 Z M 306.777344 55.875 "/><g clip-rule="nonzero" clip-path="url(#b17db0f0df)"><path style=" stroke:none;fill-rule:nonzero;fill:#945d4a;fill-opacity:1;" d="M 258.589844 29.960938 L 268.75 29.960938 L 268.75 45.203125 L 258.589844 45.203125 Z M 258.589844 29.960938 "/></g><g clip-rule="nonzero" clip-path="url(#17163ad026)"><path style=" stroke:none;fill-rule:nonzero;fill:#945d4a;fill-opacity:1;" d="M 42.832031 344.785156 C 43.269531 344.902344 43.710938 344.960938 44.148438 344.960938 C 45.582031 344.960938 46.972656 344.347656 47.949219 343.253906 L 78.101562 309.253906 C 78.625 308.664062 79.007812 307.957031 79.210938 307.195312 L 110.765625 189.410156 C 114.394531 175.878906 106.335938 161.925781 92.808594 158.296875 C 79.261719 154.675781 65.320312 162.730469 61.691406 176.261719 L 30.132812 294.046875 C 29.921875 294.808594 29.902344 295.605469 30.0625 296.378906 L 39.171875 340.898438 C 39.554688 342.785156 40.972656 344.289062 42.832031 344.785156 Z M 65.046875 308.65625 L 61.277344 312.910156 L 42.804688 307.960938 L 41.664062 302.394531 Z M 47.089844 328.90625 L 45.085938 319.089844 L 53.742188 321.410156 Z M 70.707031 299.65625 L 60.890625 297.023438 L 87.1875 198.871094 L 97.003906 201.503906 Z M 90.175781 168.113281 C 98.292969 170.285156 103.125 178.664062 100.949219 186.777344 L 99.636719 191.6875 L 70.1875 183.800781 L 71.503906 178.894531 C 73.683594 170.773438 82.054688 165.941406 90.175781 168.113281 Z M 67.5625 193.613281 L 77.375 196.242188 L 51.078125 294.398438 L 41.265625 291.765625 Z M 67.5625 193.613281 "/></g><path style=" stroke:none;fill-rule:nonzero;fill:#945d4a;fill-opacity:1;" d="M 268.75 278.910156 L 268.75 263.667969 L 258.589844 263.667969 L 258.589844 278.910156 C 258.589844 298.523438 242.636719 314.476562 223.023438 314.476562 L 212.863281 314.476562 C 193.25 314.476562 177.296875 298.523438 177.296875 278.910156 L 177.296875 187.460938 C 177.296875 162.25 156.78125 141.734375 131.570312 141.734375 L 126.492188 141.734375 L 126.492188 151.894531 L 131.570312 151.894531 C 151.183594 151.894531 167.136719 167.847656 167.136719 187.460938 L 167.136719 278.910156 C 167.136719 304.121094 187.652344 324.636719 212.863281 324.636719 L 223.023438 324.636719 C 248.234375 324.636719 268.75 304.121094 268.75 278.910156 Z M 268.75 278.910156 "/><path style=" stroke:none;fill-rule:nonzero;fill:#945d4a;fill-opacity:1;" d="M 258.589844 243.347656 L 268.75 243.347656 L 268.75 253.507812 L 258.589844 253.507812 Z M 258.589844 243.347656 "/><path style=" stroke:none;fill-rule:nonzero;fill:#945d4a;fill-opacity:1;" d="M 289.839844 100.230469 L 274.96875 97.957031 L 268.273438 83.6875 C 267.433594 81.902344 265.640625 80.765625 263.667969 80.765625 C 261.699219 80.765625 259.902344 81.902344 259.070312 83.6875 L 252.375 97.957031 L 237.503906 100.230469 C 235.617188 100.519531 234.058594 101.835938 233.453125 103.640625 C 232.851562 105.441406 233.308594 107.4375 234.632812 108.800781 L 245.542969 119.984375 L 242.957031 135.835938 C 242.640625 137.753906 243.453125 139.6875 245.042969 140.808594 C 246.632812 141.929688 248.726562 142.039062 250.429688 141.101562 L 263.667969 133.78125 L 276.910156 141.097656 C 277.679688 141.519531 278.523438 141.734375 279.367188 141.734375 C 280.394531 141.734375 281.421875 141.417969 282.292969 140.804688 C 283.886719 139.679688 284.699219 137.75 284.382812 135.828125 L 281.796875 119.976562 L 292.703125 108.796875 C 294.035156 107.433594 294.492188 105.441406 293.882812 103.632812 C 293.273438 101.824219 291.71875 100.519531 289.839844 100.230469 Z M 272.734375 114.726562 C 271.605469 115.878906 271.097656 117.5 271.355469 119.089844 L 272.671875 127.148438 L 266.128906 123.53125 C 265.359375 123.109375 264.515625 122.894531 263.667969 122.894531 C 262.820312 122.894531 261.976562 123.109375 261.210938 123.53125 L 254.664062 127.148438 L 255.980469 119.089844 C 256.242188 117.5 255.734375 115.878906 254.605469 114.726562 L 248.808594 108.785156 L 256.585938 107.597656 C 258.261719 107.335938 259.699219 106.265625 260.417969 104.730469 L 263.667969 97.804688 L 266.921875 104.730469 C 267.640625 106.265625 269.078125 107.335938 270.75 107.597656 L 278.53125 108.785156 Z M 272.734375 114.726562 "/><path style=" stroke:none;fill-rule:nonzero;fill:#945d4a;fill-opacity:1;" d="M 106.167969 141.734375 L 116.332031 141.734375 L 116.332031 151.894531 L 106.167969 151.894531 Z M 106.167969 141.734375 "/></g></svg>