<svg xmlns="http://www.w3.org/2000/svg" xmlns:xlink="http://www.w3.org/1999/xlink" width="500" zoomAndPan="magnify" viewBox="0 0 375 374.999991" height="500" preserveAspectRatio="xMidYMid meet" version="1.2"><defs><clipPath id="f57926d59c"><path d="M 17.597656 20.148438 L 356 20.148438 L 356 354.648438 L 17.597656 354.648438 Z M 17.597656 20.148438 "/></clipPath></defs><g id="e766bf90ba"><path style=" stroke:none;fill-rule:nonzero;fill:#945d4a;fill-opacity:1;" d="M 124.738281 110.140625 L 232.199219 110.140625 C 234.355469 110.140625 236.105469 108.390625 236.105469 106.234375 C 236.105469 104.078125 234.355469 102.328125 232.199219 102.328125 L 124.738281 102.328125 C 122.582031 102.328125 120.832031 104.078125 120.832031 106.234375 C 120.832031 108.394531 122.582031 110.140625 124.738281 110.140625 Z M 124.738281 110.140625 "/><path style=" stroke:none;fill-rule:nonzero;fill:#945d4a;fill-opacity:1;" d="M 65.621094 127.628906 L 101.644531 127.628906 C 103.800781 127.628906 105.550781 125.878906 105.550781 123.722656 L 105.550781 88.75 C 105.550781 86.59375 103.800781 84.84375 101.644531 84.84375 L 65.621094 84.84375 C 63.464844 84.84375 61.714844 86.59375 61.714844 88.75 L 61.714844 123.730469 C 61.714844 125.886719 63.464844 127.628906 65.621094 127.628906 Z M 69.527344 92.65625 L 97.738281 92.65625 L 97.738281 119.824219 L 69.527344 119.824219 Z M 69.527344 92.65625 "/><path style=" stroke:none;fill-rule:nonzero;fill:#945d4a;fill-opacity:1;" d="M 65.621094 188.710938 L 101.644531 188.710938 C 103.800781 188.710938 105.550781 186.960938 105.550781 184.804688 L 105.550781 149.828125 C 105.550781 147.671875 103.800781 145.921875 101.644531 145.921875 L 65.621094 145.921875 C 63.464844 145.921875 61.714844 147.671875 61.714844 149.828125 L 61.714844 184.804688 C 61.714844 186.964844 63.464844 188.710938 65.621094 188.710938 Z M 69.527344 153.734375 L 97.738281 153.734375 L 97.738281 180.898438 L 69.527344 180.898438 Z M 69.527344 153.734375 "/><path style=" stroke:none;fill-rule:nonzero;fill:#945d4a;fill-opacity:1;" d="M 65.621094 249.796875 L 101.644531 249.796875 C 103.800781 249.796875 105.550781 248.046875 105.550781 245.890625 L 105.550781 210.910156 C 105.550781 208.753906 103.800781 207.003906 101.644531 207.003906 L 65.621094 207.003906 C 63.464844 207.003906 61.714844 208.753906 61.714844 210.910156 L 61.714844 245.890625 C 61.714844 248.046875 63.464844 249.796875 65.621094 249.796875 Z M 69.527344 214.816406 L 97.738281 214.816406 L 97.738281 241.984375 L 69.527344 241.984375 Z M 69.527344 214.816406 "/><path style=" stroke:none;fill-rule:nonzero;fill:#945d4a;fill-opacity:1;" d="M 65.621094 310.875 L 101.644531 310.875 C 103.800781 310.875 105.550781 309.125 105.550781 306.96875 L 105.550781 271.988281 C 105.550781 269.832031 103.800781 268.082031 101.644531 268.082031 L 65.621094 268.082031 C 63.464844 268.082031 61.714844 269.832031 61.714844 271.988281 L 61.714844 306.96875 C 61.714844 309.125 63.464844 310.875 65.621094 310.875 Z M 69.527344 275.894531 L 97.738281 275.894531 L 97.738281 303.0625 L 69.527344 303.0625 Z M 69.527344 275.894531 "/><path style=" stroke:none;fill-rule:nonzero;fill:#945d4a;fill-opacity:1;" d="M 88.394531 98.023438 L 80.253906 106.160156 L 78.878906 104.785156 C 77.351562 103.261719 74.882812 103.261719 73.351562 104.785156 C 71.824219 106.3125 71.824219 108.78125 73.351562 110.308594 L 77.488281 114.449219 C 78.246094 115.207031 79.246094 115.59375 80.246094 115.59375 C 81.246094 115.59375 82.246094 115.214844 83.007812 114.449219 L 93.910156 103.546875 C 95.433594 102.019531 95.433594 99.546875 93.910156 98.019531 C 92.394531 96.5 89.917969 96.5 88.394531 98.023438 Z M 88.394531 98.023438 "/><g clip-rule="nonzero" clip-path="url(#f57926d59c)"><path style=" stroke:none;fill-rule:nonzero;fill:#945d4a;fill-opacity:1;" d="M 351.058594 75.445312 L 322.957031 56.648438 C 318.058594 53.378906 310.925781 54.804688 307.65625 59.683594 L 289.960938 86.140625 L 280.039062 100.972656 L 280.039062 36.402344 C 280.039062 27.757812 273.03125 20.726562 264.414062 20.726562 L 33.414062 20.726562 C 24.796875 20.726562 17.785156 27.757812 17.785156 36.402344 L 17.785156 338.445312 C 17.785156 347.058594 24.796875 354.070312 33.414062 354.070312 L 264.410156 354.070312 C 273.023438 354.070312 280.035156 347.058594 280.035156 338.445312 L 280.035156 201.457031 L 336.398438 117.203125 L 354.089844 90.753906 C 357.496094 85.671875 356.121094 78.832031 351.058594 75.445312 Z M 88.707031 49.371094 C 90.261719 63.789062 102.5 75.050781 117.320312 75.050781 L 180.523438 75.050781 C 195.339844 75.050781 207.574219 63.789062 209.132812 49.371094 L 251.386719 49.371094 L 251.386719 143.796875 L 236.003906 166.796875 C 235.277344 161.589844 236.746094 163.414062 124.738281 163.414062 C 122.582031 163.414062 120.832031 165.164062 120.832031 167.320312 C 120.832031 169.476562 122.582031 171.226562 124.738281 171.226562 C 125.941406 171.226562 232.007812 171.335938 233.167969 171.027344 L 197.417969 224.484375 L 124.722656 224.484375 C 122.566406 224.484375 120.816406 226.234375 120.816406 228.390625 C 120.816406 230.546875 122.566406 232.296875 124.722656 232.296875 L 192.1875 232.296875 L 186.605469 240.640625 C 186.601562 240.648438 186.601562 240.664062 186.589844 240.675781 C 186.558594 240.722656 186.554688 240.78125 186.527344 240.828125 C 186.234375 241.316406 186.078125 241.851562 186.023438 242.410156 C 186.011719 242.488281 185.953125 242.554688 185.949219 242.632812 L 184.058594 285.574219 L 124.738281 285.574219 C 122.582031 285.574219 120.832031 287.324219 120.832031 289.480469 C 120.832031 291.636719 122.582031 293.386719 124.738281 293.386719 L 232.199219 293.386719 C 234.355469 293.386719 236.105469 291.636719 236.105469 289.480469 C 236.105469 287.324219 234.355469 285.574219 232.199219 285.574219 L 204.585938 285.574219 L 231.445312 273.074219 C 231.472656 273.0625 231.488281 273.03125 231.511719 273.015625 C 231.957031 272.796875 232.308594 272.4375 232.648438 272.058594 C 232.757812 271.933594 232.917969 271.863281 233.011719 271.730469 C 233.019531 271.71875 233.035156 271.714844 233.039062 271.703125 L 251.382812 244.28125 L 251.382812 325.421875 L 46.433594 325.421875 L 46.433594 49.371094 Z M 201.496094 45.441406 C 201.496094 45.449219 201.492188 45.457031 201.492188 45.464844 C 201.492188 45.476562 201.496094 45.480469 201.496094 45.492188 L 201.496094 46.261719 C 201.496094 57.832031 192.085938 67.238281 180.523438 67.238281 L 117.320312 67.238281 C 105.753906 67.238281 96.347656 57.824219 96.347656 46.261719 L 96.347656 28.542969 L 201.5 28.542969 L 201.5 45.441406 Z M 193.449219 249.914062 L 221.851562 268.917969 L 192 282.8125 Z M 195.273438 241.734375 L 294.28125 93.734375 L 307.753906 102.75 L 208.75 250.75 Z M 272.222656 36.402344 L 272.222656 112.65625 L 259.203125 132.121094 L 259.203125 45.464844 C 259.203125 43.308594 257.453125 41.558594 255.296875 41.558594 L 209.308594 41.558594 L 209.308594 28.539062 L 264.410156 28.539062 C 268.722656 28.539062 272.222656 32.066406 272.222656 36.402344 Z M 272.222656 338.445312 C 272.222656 342.753906 268.71875 346.257812 264.410156 346.257812 L 33.414062 346.257812 C 29.105469 346.257812 25.601562 342.753906 25.601562 338.445312 L 25.601562 36.402344 C 25.601562 32.070312 29.105469 28.539062 33.414062 28.539062 L 88.527344 28.539062 L 88.527344 41.558594 L 42.527344 41.558594 C 40.371094 41.558594 38.621094 43.308594 38.621094 45.464844 L 38.621094 329.328125 C 38.621094 331.484375 40.371094 333.234375 42.527344 333.234375 L 255.296875 333.234375 C 257.453125 333.234375 259.203125 331.484375 259.203125 329.328125 L 259.203125 232.601562 L 272.222656 213.136719 Z M 228.722656 264.109375 L 215.246094 255.09375 L 314.253906 107.09375 L 327.730469 116.109375 Z M 347.601562 86.410156 L 332.078125 109.613281 L 315.355469 98.425781 L 298.628906 87.238281 L 314.152344 64.035156 C 315.105469 62.613281 317.183594 62.179688 318.621094 63.148438 L 346.71875 81.945312 C 347.433594 82.425781 347.917969 83.15625 348.085938 84 C 348.25 84.835938 348.078125 85.695312 347.601562 86.410156 Z M 347.601562 86.410156 "/></g></g></svg>