<svg xmlns="http://www.w3.org/2000/svg" xmlns:xlink="http://www.w3.org/1999/xlink" width="500" zoomAndPan="magnify" viewBox="0 0 375 374.999991" height="500" preserveAspectRatio="xMidYMid meet" version="1.2"><defs><clipPath id="59fb18af36"><path d="M 36 17.492188 L 339 17.492188 L 339 357.242188 L 36 357.242188 Z M 36 17.492188 "/></clipPath></defs><g id="e966703ef4"><g clip-rule="nonzero" clip-path="url(#59fb18af36)"><path style=" stroke:none;fill-rule:nonzero;fill:#945d4a;fill-opacity:1;" d="M 170.785156 219.351562 L 226.199219 219.351562 C 228.761719 219.351562 230.84375 217.273438 230.84375 214.707031 L 230.84375 159.277344 C 230.84375 156.710938 228.761719 154.632812 226.199219 154.632812 L 170.785156 154.632812 C 168.21875 154.632812 166.140625 156.710938 166.140625 159.277344 L 166.140625 214.707031 C 166.140625 217.273438 168.21875 219.351562 170.785156 219.351562 Z M 203.144531 163.921875 L 221.554688 163.921875 L 221.554688 182.347656 L 203.144531 182.347656 Z M 203.144531 191.636719 L 221.554688 191.636719 L 221.554688 210.0625 L 203.144531 210.0625 Z M 175.429688 163.921875 L 193.855469 163.921875 L 193.855469 182.347656 L 175.429688 182.347656 Z M 175.429688 191.636719 L 193.855469 191.636719 L 193.855469 210.0625 L 175.429688 210.0625 Z M 334.789062 249.878906 C 331.207031 243.875 325.484375 239.621094 318.675781 237.898438 C 311.867188 236.179688 304.808594 237.203125 298.804688 240.785156 L 296.628906 242.085938 C 296.136719 240.664062 295.511719 239.289062 294.753906 237.980469 C 291.578125 232.476562 286.429688 228.535156 280.261719 226.882812 C 278.988281 226.542969 277.703125 226.3125 276.421875 226.183594 L 276.421875 172.785156 C 309.484375 156.910156 325.550781 128.421875 325.496094 85.789062 C 325.496094 83.585938 323.945312 81.6875 321.785156 81.242188 C 303.605469 77.523438 288.324219 69.242188 275.066406 55.929688 C 274.195312 55.054688 273.011719 54.5625 271.777344 54.5625 C 270.542969 54.5625 269.359375 55.050781 268.488281 55.925781 C 261.171875 63.261719 253.246094 69.0625 244.566406 73.421875 L 201.683594 33.089844 C 199.894531 31.40625 197.109375 31.40625 195.320312 33.089844 L 172.535156 54.519531 L 172.535156 22.199219 C 172.535156 19.636719 170.453125 17.554688 167.890625 17.554688 L 142.695312 17.554688 C 140.128906 17.554688 138.046875 19.636719 138.046875 22.199219 L 138.046875 86.953125 L 99.761719 122.949219 C 98.375 124.253906 97.925781 126.273438 98.625 128.042969 C 99.328125 129.816406 101.039062 130.976562 102.945312 130.976562 L 120.582031 130.976562 L 120.582031 228.625 C 113.933594 227.605469 107.503906 228.738281 101.429688 232.023438 L 76.820312 245.324219 L 75.261719 242.632812 C 74.640625 241.566406 73.625 240.789062 72.433594 240.472656 C 71.242188 240.160156 69.972656 240.328125 68.90625 240.949219 L 38.316406 258.738281 C 36.101562 260.023438 35.347656 262.863281 36.632812 265.082031 L 88.679688 354.867188 C 89.296875 355.933594 90.3125 356.710938 91.503906 357.027344 C 91.898438 357.128906 92.296875 357.183594 92.695312 357.183594 C 93.511719 357.183594 94.316406 356.96875 95.03125 356.550781 L 125.625 338.765625 C 127.839844 337.476562 128.59375 334.636719 127.308594 332.417969 L 124.03125 326.769531 L 130.207031 323.179688 C 133.75 321.121094 137.414062 320.566406 141.410156 321.488281 L 218.667969 339.21875 C 221.230469 339.808594 223.757812 340.105469 226.242188 340.105469 C 231.929688 340.105469 237.394531 338.554688 242.550781 335.464844 L 325.699219 285.863281 C 331.699219 282.28125 335.957031 276.554688 337.675781 269.742188 C 339.398438 262.925781 338.371094 255.871094 334.789062 249.878906 Z M 277.855469 235.855469 C 281.628906 236.863281 284.773438 239.269531 286.710938 242.625 C 287.5 243.992188 288.054688 245.480469 288.363281 247.015625 L 238.5625 276.726562 C 238.257812 273.035156 237.175781 269.394531 235.339844 266.082031 C 233.8125 263.3125 231.808594 260.871094 229.460938 258.847656 L 266.800781 237.289062 C 268.492188 236.316406 270.324219 235.703125 272.207031 235.464844 C 272.226562 235.464844 272.25 235.460938 272.269531 235.460938 C 274.109375 235.234375 276.003906 235.359375 277.855469 235.855469 Z M 231.980469 142.253906 C 240.042969 155.179688 251.863281 165.4375 267.132812 172.785156 L 267.132812 227.089844 C 265.417969 227.613281 263.75 228.328125 262.160156 229.246094 L 219.960938 253.605469 C 219.582031 253.492188 219.203125 253.382812 218.816406 253.285156 L 129.871094 230.8125 L 129.871094 130.976562 L 226.164062 130.976562 C 227.84375 134.960938 229.777344 138.726562 231.980469 142.253906 Z M 271.773438 65.65625 C 284.648438 77.585938 299.238281 85.425781 316.167969 89.507812 C 315.308594 126.378906 300.757812 151.019531 271.777344 164.714844 C 242.785156 151.015625 228.226562 126.371094 227.367188 89.507812 C 244.285156 85.425781 258.882812 77.585938 271.773438 65.65625 Z M 147.335938 26.84375 L 163.246094 26.84375 L 163.246094 34.59375 L 147.335938 34.59375 Z M 147.335938 43.882812 L 163.246094 43.882812 L 163.246094 63.257812 L 147.539062 78.027344 L 147.335938 78.21875 Z M 114.664062 121.6875 L 153.902344 84.792969 L 198.5 42.847656 L 235.273438 77.433594 C 230.945312 79.011719 226.445312 80.28125 221.75 81.242188 C 219.589844 81.6875 218.039062 83.585938 218.035156 85.789062 C 218.019531 99.03125 219.636719 111.023438 222.835938 121.6875 Z M 94.382812 346.183594 L 46.992188 264.433594 L 69.554688 251.316406 L 113.664062 327.40625 C 113.664062 327.410156 113.667969 327.414062 113.667969 327.417969 C 113.671875 327.421875 113.671875 327.425781 113.675781 327.429688 L 116.945312 333.066406 L 94.378906 346.183594 Z M 328.667969 267.464844 C 327.554688 271.875 324.808594 275.574219 320.9375 277.886719 L 237.78125 327.492188 C 232.425781 330.699219 226.855469 331.574219 220.75 330.164062 L 143.488281 312.433594 C 137.179688 310.984375 131.144531 311.894531 125.542969 315.144531 L 119.371094 318.730469 L 81.480469 253.363281 L 105.847656 240.191406 C 110.820312 237.503906 115.914062 236.871094 121.417969 238.257812 L 216.542969 262.289062 C 221.105469 263.441406 224.894531 266.386719 227.214844 270.574219 C 229.503906 274.710938 229.996094 279.617188 228.566406 284.035156 C 228.546875 284.097656 228.539062 284.15625 228.523438 284.21875 C 228.492188 284.292969 228.457031 284.367188 228.429688 284.445312 C 225.5625 292.675781 216.675781 297.449219 208.195312 295.308594 L 157.878906 282.597656 C 155.390625 281.964844 152.863281 283.476562 152.238281 285.960938 C 151.609375 288.449219 153.117188 290.972656 155.601562 291.601562 L 205.921875 304.3125 C 208.035156 304.847656 210.164062 305.101562 212.265625 305.101562 C 222.832031 305.101562 232.761719 298.65625 236.789062 288.605469 L 303.566406 248.761719 C 307.4375 246.453125 311.996094 245.792969 316.398438 246.90625 C 320.804688 248.015625 324.5 250.761719 326.8125 254.640625 C 329.125 258.503906 329.78125 263.058594 328.667969 267.464844 Z M 244.445312 111.578125 C 246.257812 109.765625 249.199219 109.765625 251.011719 111.578125 L 263.519531 124.089844 L 292.523438 95.089844 C 294.335938 93.273438 297.277344 93.273438 299.089844 95.089844 C 300.90625 96.902344 300.90625 99.84375 299.089844 101.65625 L 266.804688 133.941406 C 265.933594 134.8125 264.753906 135.300781 263.523438 135.300781 C 262.289062 135.300781 261.109375 134.8125 260.238281 133.941406 L 244.445312 118.148438 C 242.628906 116.332031 242.628906 113.390625 244.445312 111.578125 Z M 244.445312 111.578125 "/></g></g></svg>