<svg xmlns="http://www.w3.org/2000/svg" xmlns:xlink="http://www.w3.org/1999/xlink" width="512" zoomAndPan="magnify" viewBox="0 0 384 191.999996" height="256" preserveAspectRatio="xMidYMid meet" version="1.2"><defs/><g id="738a387122"><g style="fill:#000000;fill-opacity:1;"><g transform="translate(223.013736, 98.249994)"><path style="stroke:none" d="M 1.34375 0 L 0.6875 0 L 0.6875 -4.28125 L 1.34375 -4.28125 Z M 0.640625 -5.4375 C 0.640625 -5.59375 0.675781 -5.703125 0.75 -5.765625 C 0.820312 -5.835938 0.910156 -5.875 1.015625 -5.875 C 1.117188 -5.875 1.207031 -5.835938 1.28125 -5.765625 C 1.363281 -5.691406 1.40625 -5.582031 1.40625 -5.4375 C 1.40625 -5.289062 1.363281 -5.179688 1.28125 -5.109375 C 1.207031 -5.046875 1.117188 -5.015625 1.015625 -5.015625 C 0.910156 -5.015625 0.820312 -5.046875 0.75 -5.109375 C 0.675781 -5.179688 0.640625 -5.289062 0.640625 -5.4375 Z M 0.640625 -5.4375 "/></g></g><path style=" stroke:none;fill-rule:nonzero;fill:#ae6846;fill-opacity:1;" d="M 142.863281 85.847656 L 67.835938 10.816406 C 61.878906 4.863281 52.226562 4.863281 46.269531 10.816406 C 40.3125 16.773438 40.3125 26.429688 46.269531 32.382812 L 110.515625 96.628906 L 46.269531 160.875 C 40.3125 166.832031 40.3125 176.484375 46.269531 182.441406 C 49.246094 185.417969 53.152344 186.90625 57.050781 186.90625 C 60.953125 186.90625 64.859375 185.417969 67.835938 182.441406 L 142.863281 107.414062 C 148.820312 101.457031 148.820312 91.800781 142.863281 85.847656 Z M 142.863281 85.847656 "/><path style=" stroke:none;fill-rule:nonzero;fill:#d3b063;fill-opacity:1;" d="M 240.113281 85.847656 L 165.085938 10.816406 C 159.128906 4.863281 149.472656 4.863281 143.519531 10.816406 C 137.5625 16.773438 137.5625 26.429688 143.519531 32.382812 L 207.761719 96.628906 L 143.519531 160.875 C 137.5625 166.832031 137.5625 176.484375 143.519531 182.441406 C 146.496094 185.417969 150.398438 186.90625 154.300781 186.90625 C 158.203125 186.90625 162.105469 185.417969 165.082031 182.441406 L 240.109375 107.414062 C 246.066406 101.457031 246.066406 91.800781 240.113281 85.847656 Z M 240.113281 85.847656 "/><path style=" stroke:none;fill-rule:nonzero;fill:#ae6846;fill-opacity:1;" d="M 337.363281 85.847656 L 262.335938 10.816406 C 256.378906 4.863281 246.722656 4.863281 240.769531 10.816406 C 234.8125 16.773438 234.8125 26.429688 240.769531 32.382812 L 305.011719 96.628906 L 240.765625 160.875 C 234.8125 166.832031 234.8125 176.484375 240.765625 182.441406 C 243.742188 185.417969 247.648438 186.90625 251.546875 186.90625 C 255.449219 186.90625 259.355469 185.417969 262.332031 182.441406 L 337.359375 107.414062 C 343.316406 101.457031 343.316406 91.800781 337.363281 85.847656 Z M 337.363281 85.847656 "/></g></svg>